<svg width="254" height="49" viewBox="0 0 254 49" fill="none" xmlns="http://www.w3.org/2000/svg">
<path d="M44.4545 18.9091H31.6364C31.5455 17.8485 31.303 16.8864 30.9091 16.0227C30.5303 15.1591 30 14.4167 29.3182 13.7955C28.6515 13.1591 27.8409 12.6742 26.8864 12.3409C25.9318 11.9924 24.8485 11.8182 23.6364 11.8182C21.5152 11.8182 19.7197 12.3333 18.25 13.3636C16.7955 14.3939 15.6894 15.8712 14.9318 17.7955C14.1894 19.7197 13.8182 22.0303 13.8182 24.7273C13.8182 27.5758 14.197 29.9621 14.9545 31.8864C15.7273 33.7955 16.8409 35.2348 18.2955 36.2045C19.75 37.1591 21.5 37.6364 23.5455 37.6364C24.7121 37.6364 25.7576 37.4924 26.6818 37.2045C27.6061 36.9015 28.4091 36.4697 29.0909 35.9091C29.7727 35.3485 30.3258 34.6742 30.75 33.8864C31.1894 33.0833 31.4848 32.1818 31.6364 31.1818L44.4545 31.2727C44.303 33.2424 43.75 35.25 42.7955 37.2955C41.8409 39.3258 40.4848 41.2045 38.7273 42.9318C36.9848 44.6439 34.8258 46.0227 32.25 47.0682C29.6742 48.1136 26.6818 48.6364 23.2727 48.6364C19 48.6364 15.1667 47.7197 11.7727 45.8864C8.39394 44.053 5.7197 41.3561 3.75 37.7955C1.79545 34.2348 0.818182 29.8788 0.818182 24.7273C0.818182 19.5455 1.81818 15.1818 3.81818 11.6364C5.81818 8.07576 8.51515 5.38636 11.9091 3.56818C15.303 1.73485 19.0909 0.81818 23.2727 0.81818C26.2121 0.81818 28.9167 1.21969 31.3864 2.02272C33.8561 2.82576 36.0227 4 37.8864 5.54545C39.75 7.07576 41.25 8.96212 42.3864 11.2045C43.5227 13.447 44.2121 16.0152 44.4545 18.9091ZM67.1875 48.6364C63.3996 48.6364 60.1572 47.8864 57.4602 46.3864C54.7633 44.8712 52.6951 42.7652 51.2557 40.0682C49.8163 37.3561 49.0966 34.2121 49.0966 30.6364C49.0966 27.0606 49.8163 23.9242 51.2557 21.2273C52.6951 18.5152 54.7633 16.4091 57.4602 14.9091C60.1572 13.3939 63.3996 12.6364 67.1875 12.6364C70.9754 12.6364 74.2178 13.3939 76.9148 14.9091C79.6117 16.4091 81.6799 18.5152 83.1193 21.2273C84.5587 23.9242 85.2784 27.0606 85.2784 30.6364C85.2784 34.2121 84.5587 37.3561 83.1193 40.0682C81.6799 42.7652 79.6117 44.8712 76.9148 46.3864C74.2178 47.8864 70.9754 48.6364 67.1875 48.6364ZM67.2784 39.3636C68.339 39.3636 69.2557 39.0076 70.0284 38.2955C70.8011 37.5833 71.3996 36.5682 71.8239 35.25C72.2481 33.9318 72.4602 32.3636 72.4602 30.5455C72.4602 28.7121 72.2481 27.1439 71.8239 25.8409C71.3996 24.5227 70.8011 23.5076 70.0284 22.7955C69.2557 22.0833 68.339 21.7273 67.2784 21.7273C66.1572 21.7273 65.1951 22.0833 64.392 22.7955C63.589 23.5076 62.9754 24.5227 62.5511 25.8409C62.1269 27.1439 61.9148 28.7121 61.9148 30.5455C61.9148 32.3636 62.1269 33.9318 62.5511 35.25C62.9754 36.5682 63.589 37.5833 64.392 38.2955C65.1951 39.0076 66.1572 39.3636 67.2784 39.3636ZM108.097 48H90.1875V1.45454H107.915C112.703 1.45454 116.839 2.38636 120.324 4.25C123.824 6.09848 126.521 8.76515 128.415 12.25C130.324 15.7197 131.278 19.8788 131.278 24.7273C131.278 29.5758 130.331 33.7424 128.438 37.2273C126.544 40.697 123.862 43.3636 120.392 45.2273C116.922 47.0758 112.824 48 108.097 48ZM102.824 37.2727H107.642C109.945 37.2727 111.907 36.9015 113.528 36.1591C115.165 35.4167 116.407 34.1364 117.256 32.3182C118.119 30.5 118.551 27.9697 118.551 24.7273C118.551 21.4848 118.112 18.9545 117.233 17.1364C116.369 15.3182 115.097 14.0379 113.415 13.2955C111.748 12.553 109.703 12.1818 107.278 12.1818H102.824V37.2727ZM159.943 32.7273V13.0909H172.489V48H160.58V41.3636H160.216C159.458 43.5909 158.133 45.3333 156.239 46.5909C154.345 47.8333 152.095 48.4545 149.489 48.4545C147.049 48.4545 144.913 47.8939 143.08 46.7727C141.261 45.6515 139.845 44.1061 138.83 42.1364C137.83 40.1667 137.322 37.9091 137.307 35.3636V13.0909H149.852V32.7273C149.867 34.4545 150.307 35.8106 151.17 36.7955C152.049 37.7803 153.277 38.2727 154.852 38.2727C155.898 38.2727 156.799 38.053 157.557 37.6136C158.33 37.1591 158.92 36.5227 159.33 35.7045C159.754 34.8712 159.958 33.8788 159.943 32.7273ZM195.688 48.6364C191.9 48.6364 188.657 47.8864 185.96 46.3864C183.263 44.8712 181.195 42.7652 179.756 40.0682C178.316 37.3561 177.597 34.2121 177.597 30.6364C177.597 27.0606 178.316 23.9242 179.756 21.2273C181.195 18.5152 183.263 16.4091 185.96 14.9091C188.657 13.3939 191.9 12.6364 195.688 12.6364C199.112 12.6364 202.074 13.2576 204.574 14.5C207.089 15.7273 209.036 17.4697 210.415 19.7273C211.794 21.9697 212.491 24.6061 212.506 27.6364H200.869C200.703 25.803 200.172 24.4091 199.278 23.4545C198.4 22.4848 197.263 22 195.869 22C194.778 22 193.824 22.3182 193.006 22.9545C192.188 23.5758 191.551 24.5227 191.097 25.7955C190.642 27.053 190.415 28.6364 190.415 30.5455C190.415 32.4545 190.642 34.0455 191.097 35.3182C191.551 36.5758 192.188 37.5227 193.006 38.1591C193.824 38.7803 194.778 39.0909 195.869 39.0909C196.794 39.0909 197.612 38.8788 198.324 38.4545C199.036 38.0152 199.612 37.3788 200.051 36.5455C200.506 35.697 200.778 34.6667 200.869 33.4545H212.506C212.46 36.5303 211.756 39.2121 210.392 41.5C209.028 43.7727 207.097 45.5303 204.597 46.7727C202.112 48.0152 199.142 48.6364 195.688 48.6364ZM228.955 39.7273L229.045 24.8182H230.682L239.136 13.0909H253.227L239.045 31.3636H235.5L228.955 39.7273ZM217.682 48V1.45454H230.227V48H217.682ZM239.227 48L231.227 34.1818L239.409 25.2727L253.591 48H239.227Z" fill="#FAD85D"/>
</svg>
