<svg width="56" height="64" viewBox="0 0 56 64" fill="none" xmlns="http://www.w3.org/2000/svg">
<path d="M6.97311 32.6754C10.237 34.9328 14.2129 32.5733 14.2129 32.5733C20.1064 29.6676 26.9082 29.8859 26.9082 29.8859C28.6498 29.8321 28.2548 28.9144 28.0356 28.408C28.0021 28.3312 27.9539 28.2643 27.9141 28.1913C26.8706 26.2674 26.3717 24.0067 26.4863 21.7206C26.7851 15.5888 31.3086 10.826 36.5905 11.0833C41.8265 11.339 45.8441 16.4369 45.6184 22.5041C45.6583 22.7317 47.7431 23.1596 49.3479 22.3862C51.4373 21.3799 50.4122 26.8 46.9179 27.9208L47.0358 27.9206C48.4681 27.9004 48.5811 28.4508 48.5811 28.4508C48.5811 28.4508 49.3168 30.2486 44.2401 30.5118C42.6349 30.5946 42.3995 30.9024 42.0549 31.3908C41.4018 32.3149 41.7602 33.701 42.5033 34.9069C44.6089 38.3125 45.6391 45.7605 39.1904 50.7867C33.7225 55.0492 19.7417 54.5741 13.9229 48.6595C8.67373 43.3246 6.43824 38.1987 5.16232 33.9511C4.99131 33.3778 3.7102 30.4198 6.97311 32.6754Z" fill="#FACC15"/>
<path d="M27.1683 54.0092C29.4858 54.1221 31.7752 53.9541 33.819 53.5183C36.1117 53.03 38.0421 52.2114 39.4016 51.1518C42.1138 49.0375 43.8184 46.2452 44.3314 43.0768C44.897 39.5822 43.9187 36.4276 42.8148 34.6397C42.5339 34.1848 41.6698 32.6259 42.3475 31.6657C42.6385 31.2535 42.799 31.0268 44.2508 30.9518C46.7991 30.8201 48.3411 30.2763 48.8336 29.3391C48.9189 29.186 48.973 29.0127 48.9918 28.8325C49.0106 28.6524 48.9935 28.4703 48.9419 28.3002C48.8981 28.1512 48.7636 27.877 48.3302 27.6841C49.6514 26.7416 50.4781 25.2154 50.7294 23.9431C50.898 23.0884 50.7902 22.4222 50.4255 22.0668C50.2141 21.8605 49.8323 21.6778 49.2055 21.9789C48.0265 22.5469 46.5155 22.4022 46.0071 22.2424C46.0566 19.2522 45.1054 16.373 43.3533 14.2098C41.6012 12.0467 39.1846 10.768 36.6114 10.6426C31.1281 10.3754 26.4142 15.3375 26.104 21.7045C25.9837 24.0821 26.5026 26.4336 27.589 28.4337C27.6073 28.4672 27.6266 28.5001 27.6465 28.5325C27.6635 28.5588 27.6792 28.5862 27.6935 28.6147C27.7545 28.7551 27.8971 29.0842 27.8414 29.1905C27.8364 29.1997 27.7128 29.4211 26.9108 29.4454C26.7483 29.4411 25.0933 29.4031 22.7318 29.702C20.4821 29.9868 17.1527 30.6461 14.0648 32.1681L14.0397 32.1817C14.0018 32.2042 10.2079 34.3984 7.16911 32.2959C5.8476 31.3816 5.09692 31.1786 4.6589 31.6151C4.1228 32.1487 4.50483 33.2487 4.73293 33.9066C4.76153 33.9897 4.78663 34.0608 4.79977 34.1053C5.89406 37.7358 8.0003 43.2321 13.6704 48.9949C15.1032 50.4518 17.0442 51.6337 19.4388 52.5097C21.6104 53.3037 24.1086 53.8127 26.6616 53.9821C26.8308 53.992 26.9997 54.001 27.1683 54.0092ZM48.2307 28.6363C48.2387 28.6711 48.2501 28.7723 48.1663 28.9116C47.9928 29.2069 47.2622 29.9099 44.2271 30.067C42.6075 30.151 42.2153 30.4647 41.7584 31.1111C41.0658 32.0913 41.2287 33.6071 42.1893 35.1647C43.2025 36.8055 44.0998 39.7056 43.5787 42.9264C43.3527 44.3101 42.8822 45.6286 42.1969 46.7981C41.4123 48.1487 40.3302 49.367 38.9802 50.4194C36.4351 52.4032 31.736 53.4292 26.7154 53.0964C24.224 52.9312 21.7889 52.4353 19.6764 51.6631C17.3816 50.824 15.5316 49.7004 14.177 48.3237C8.64209 42.6965 6.58671 37.3396 5.5247 33.8001C5.50587 33.7364 5.48052 33.6599 5.44546 33.5628C5.35091 33.3038 5.27068 33.0377 5.20524 32.7664C5.13872 32.467 5.15252 32.3303 5.16189 32.2846C5.24184 32.2665 5.61525 32.2557 6.77345 33.0566C8.18823 34.0352 9.95522 34.3286 11.8841 33.9062C12.7427 33.7213 13.5786 33.4083 14.3708 32.9749C20.112 30.1488 26.8261 30.3243 26.8954 30.3277L26.9157 30.3287C27.7622 30.3024 28.2647 30.0829 28.4971 29.6358C28.7729 29.1068 28.5174 28.5181 28.3803 28.2016C28.3502 28.1346 28.3159 28.0704 28.2774 28.0095C28.2652 27.9893 28.2529 27.9692 28.2416 27.9485C27.2389 26.102 26.76 23.9313 26.8712 21.7365C27.1538 15.8615 31.5057 11.2822 36.5682 11.5289C38.9818 11.6467 41.2445 12.8632 42.8665 14.9153C44.4886 16.9673 45.3396 19.6897 45.2353 22.4932C45.2339 22.5298 45.2364 22.5663 45.2427 22.602C45.2593 22.6829 45.2916 22.758 45.337 22.8218C45.3825 22.8856 45.4401 22.9363 45.5054 22.9701C45.9711 23.2522 47.9439 23.5408 49.4896 22.7959C49.6944 22.6975 49.8585 22.6794 49.9286 22.7474C50.0314 22.8477 50.0925 23.2055 49.984 23.7569C49.7536 24.9255 48.7205 26.8858 46.8208 27.4951C46.7328 27.5253 46.6565 27.591 46.6059 27.6802C46.5553 27.7695 46.5337 27.8763 46.545 27.9814C46.5563 28.0865 46.5998 28.1829 46.6675 28.253C46.7352 28.3232 46.8228 28.3624 46.9142 28.3637L47.032 28.3635C47.9233 28.3513 48.1764 28.568 48.2249 28.6212L48.2307 28.6363Z" fill="#FACC15"/>
<path d="M33.3035 37.0355C33.3371 37.0399 33.371 37.0286 33.3978 37.0041C33.4246 36.9795 33.442 36.9438 33.4463 36.9048C33.4506 36.8657 33.4413 36.8265 33.4206 36.7958C33.3998 36.765 33.3693 36.7453 33.3357 36.7409C33.3331 36.7408 33.0581 36.6806 32.5809 36.5916C32.5473 36.5854 32.5129 36.595 32.4851 36.6182C32.4572 36.6414 32.4383 36.6763 32.4325 36.7153C32.4267 36.7543 32.4344 36.7941 32.454 36.8261C32.4736 36.858 32.5034 36.8794 32.5369 36.8856C33.0106 36.9738 33.2827 37.0327 33.2857 37.0334L33.3035 37.0355ZM24.7901 47.6662C24.9718 47.6751 25.1547 47.681 25.3336 47.6832C25.3674 47.6837 25.4002 47.6685 25.4247 47.6411C25.4492 47.6137 25.4635 47.5763 25.4644 47.5371C25.4653 47.4979 25.4527 47.4601 25.4295 47.432C25.4062 47.4039 25.3742 47.3879 25.3404 47.3874C24.8434 47.3804 24.3302 47.3483 23.8188 47.292C23.7851 47.2883 23.7514 47.3003 23.725 47.3253C23.6987 47.3504 23.6818 47.3864 23.6781 47.4255C23.6745 47.4646 23.6843 47.5035 23.7055 47.5338C23.7267 47.564 23.7575 47.5831 23.7912 47.5867C24.125 47.6237 24.4614 47.6502 24.7901 47.6662ZM26.8647 47.6257L26.8799 47.6265C27.3952 47.5798 27.9085 47.503 28.4179 47.3964C28.4512 47.3894 28.481 47.3673 28.5007 47.3351C28.5203 47.3028 28.5282 47.263 28.5227 47.2244C28.5171 47.1858 28.4985 47.1516 28.471 47.1293C28.4435 47.1069 28.4093 47.0983 28.376 47.1053C27.8751 47.21 27.3704 47.2855 26.8637 47.3313C26.8299 47.332 26.7974 47.3483 26.7736 47.3766C26.7497 47.4049 26.7364 47.4428 26.7365 47.4821C26.7366 47.5214 26.7502 47.5587 26.7742 47.586C26.7982 47.6133 26.8307 47.6282 26.8646 47.6275L26.8647 47.6257ZM22.2783 47.3531C22.312 47.3572 22.3458 47.3456 22.3724 47.3208C22.399 47.2961 22.4162 47.2602 22.4202 47.2212C22.4242 47.1821 22.4147 47.143 22.3937 47.1125C22.3728 47.082 22.3421 47.0625 22.3085 47.0585C21.808 46.959 21.3109 46.8387 20.8182 46.698C20.802 46.6933 20.7852 46.6924 20.7686 46.6953C20.752 46.6982 20.736 46.7049 20.7215 46.7149C20.7071 46.7249 20.6944 46.7381 20.6843 46.7537C20.6741 46.7693 20.6667 46.7871 20.6625 46.8059C20.6582 46.8248 20.6572 46.8444 20.6594 46.8636C20.6617 46.8828 20.6672 46.9012 20.6756 46.9178C20.684 46.9345 20.6952 46.949 20.7085 46.9605C20.7218 46.972 20.737 46.9804 20.7532 46.9851C21.2508 47.1278 21.7605 47.2503 22.2617 47.3499L22.2783 47.3531ZM19.3077 46.5018C19.3385 46.5036 19.369 46.4922 19.3935 46.4699C19.4179 46.4476 19.4347 46.4158 19.4407 46.3806C19.4466 46.3453 19.4414 46.3089 19.4259 46.2781C19.4104 46.2474 19.3857 46.2244 19.3564 46.2134C18.8822 46.0322 18.6095 45.901 18.6065 45.8997C18.6035 45.8984 18.3532 45.7689 17.9567 45.5417C17.9267 45.5259 17.8925 45.5244 17.8612 45.5375C17.8299 45.5506 17.804 45.5772 17.789 45.6117C17.7741 45.6463 17.7712 45.686 17.7811 45.7225C17.7909 45.759 17.8127 45.7895 17.8418 45.8074C18.2437 46.0378 18.5015 46.1706 18.504 46.1719C18.518 46.1785 18.7896 46.3096 19.2738 46.4949C19.2847 46.499 19.2961 46.5013 19.3077 46.5018ZM29.8877 46.9836C29.9019 46.9842 29.9162 46.9821 29.9299 46.9773C30.4274 46.8052 30.9159 46.5985 31.3929 46.3586C31.409 46.3514 31.4237 46.3405 31.4362 46.3266C31.4487 46.3127 31.4586 46.296 31.4655 46.2776C31.4723 46.2592 31.4759 46.2394 31.476 46.2195C31.4761 46.1996 31.4727 46.1799 31.466 46.1616C31.4594 46.1433 31.4496 46.1269 31.4373 46.1132C31.4249 46.0995 31.4103 46.0889 31.3943 46.082C31.3782 46.0752 31.3611 46.0721 31.344 46.0731C31.3268 46.0741 31.3099 46.0792 31.2944 46.0879C30.8269 46.3231 30.3481 46.5256 29.8605 46.6944C29.8316 46.7045 29.8065 46.7261 29.7898 46.7554C29.7731 46.7847 29.7657 46.8197 29.769 46.8543C29.7723 46.889 29.7861 46.9209 29.808 46.9446C29.8298 46.9682 29.8582 46.982 29.8882 46.9836L29.8877 46.9836ZM16.5396 44.9894C16.5682 44.9909 16.5966 44.9812 16.6201 44.9617C16.6437 44.9423 16.661 44.9143 16.6693 44.8823C16.6775 44.8503 16.6763 44.8162 16.6658 44.7854C16.6552 44.7546 16.636 44.729 16.6112 44.7127C16.1481 44.4071 15.7123 44.0956 15.3172 43.7886C15.2893 43.7669 15.2549 43.759 15.2217 43.7668C15.1885 43.7746 15.1591 43.7973 15.1399 43.83C15.1208 43.8627 15.1136 43.9026 15.1198 43.9411C15.126 43.9795 15.1452 44.0133 15.1731 44.035C15.5736 44.3459 16.0144 44.6606 16.4823 44.97C16.4997 44.9817 16.5194 44.9883 16.5396 44.9894ZM32.7118 45.5564C32.7366 45.5576 32.7612 45.5504 32.7827 45.5356C33.2303 45.2268 33.661 44.8856 34.072 44.514C34.0854 44.502 34.0965 44.4871 34.105 44.4702C34.1134 44.4533 34.1189 44.4346 34.1211 44.4154C34.1256 44.3764 34.1167 44.3372 34.0962 44.3064C34.0757 44.2756 34.0454 44.2556 34.0119 44.2509C33.9784 44.2462 33.9445 44.2572 33.9176 44.2814C33.515 44.6449 33.0932 44.9786 32.6549 45.2806C32.6311 45.2969 32.6125 45.3216 32.6016 45.351C32.5908 45.3804 32.5883 45.413 32.5947 45.4438C32.601 45.4747 32.6158 45.5021 32.6368 45.5222C32.6579 45.5423 32.684 45.5539 32.7114 45.5552L32.7118 45.5564ZM14.0135 43.0001C14.0401 43.0013 14.0664 42.9929 14.0888 42.976C14.1112 42.959 14.1286 42.9345 14.1386 42.9057C14.1485 42.877 14.1505 42.8455 14.1443 42.8156C14.138 42.7857 14.1239 42.759 14.1038 42.7392C13.7176 42.3706 13.3679 41.9536 13.061 41.4956C13.0405 41.4655 13.0106 41.4461 12.9777 41.4414C12.9447 41.4368 12.9113 41.4473 12.8846 41.4707C12.8579 41.4942 12.84 41.5287 12.8347 41.5669C12.8294 41.6051 12.8372 41.6439 12.8564 41.6751C13.1745 42.1507 13.5371 42.5836 13.9376 42.9662C13.9589 42.987 13.9856 42.9989 14.0135 43.0001ZM12.3843 40.1206L12.3944 40.1211C12.4282 40.1195 12.4602 40.1025 12.4835 40.0738C12.5068 40.0451 12.5195 40.007 12.5187 39.9678C12.5178 39.9233 12.5185 39.879 12.5206 39.8352C12.5434 39.3661 12.7456 38.9223 13.1214 38.5171C13.134 38.5039 13.1442 38.4879 13.1515 38.4701C13.1587 38.4524 13.1629 38.4331 13.1638 38.4136C13.1646 38.394 13.1621 38.3745 13.1564 38.3562C13.1506 38.3379 13.1418 38.3212 13.1304 38.307C13.1191 38.2927 13.1053 38.2813 13.09 38.2733C13.0747 38.2654 13.0582 38.261 13.0413 38.2606C13.0245 38.2601 13.0076 38.2636 12.9919 38.2707C12.9761 38.2778 12.9616 38.2885 12.9493 38.3021C12.5229 38.7622 12.2929 39.2739 12.2661 39.8228C12.2636 39.8742 12.2611 39.9268 12.2641 39.9791C12.2651 40.0162 12.2782 40.0513 12.3006 40.0774C12.3231 40.1036 12.3533 40.1188 12.3853 40.12L12.3843 40.1206ZM14.3305 37.6048C14.3507 37.6057 14.3708 37.601 14.3893 37.591L14.4647 37.5515C14.9057 37.3261 15.358 37.1329 15.8191 36.9731C15.8481 36.9587 15.8716 36.9325 15.8852 36.8996C15.8988 36.8666 15.9015 36.8292 15.8929 36.7944C15.8842 36.7596 15.8648 36.73 15.8383 36.7111C15.8118 36.6922 15.78 36.6853 15.7492 36.6919C15.2783 36.8556 14.8163 37.0532 14.366 37.2837L14.288 37.3243C14.2617 37.3381 14.2401 37.3617 14.2266 37.3913C14.2131 37.4209 14.2086 37.4548 14.2137 37.4875C14.2189 37.5201 14.2334 37.5497 14.2549 37.5713C14.2765 37.5929 14.3038 37.6054 14.3324 37.6066L14.3305 37.6048ZM17.2707 36.5469C17.281 36.5475 17.2913 36.5466 17.3015 36.5443C17.7767 36.433 18.2844 36.3363 18.8116 36.2566C18.8452 36.2515 18.8759 36.2312 18.8969 36.2002C18.9179 36.1691 18.9276 36.1298 18.9237 36.0909C18.9199 36.052 18.9028 36.0167 18.8764 35.9927C18.8499 35.9688 18.8161 35.9581 18.7825 35.9632C18.2497 36.0432 17.7358 36.1414 17.2549 36.2542C17.2242 36.2612 17.1966 36.281 17.1773 36.3099C17.1581 36.3388 17.1486 36.3748 17.1506 36.4109C17.1526 36.447 17.166 36.4808 17.1883 36.5059C17.2105 36.531 17.24 36.5456 17.2712 36.5469L17.2707 36.5469ZM31.0361 36.6253C31.0698 36.6288 31.1035 36.6166 31.1297 36.5914C31.1559 36.5661 31.1726 36.53 31.1761 36.4909C31.1795 36.4518 31.1695 36.4129 31.1481 36.3829C31.1268 36.3528 31.0959 36.3339 31.0622 36.3305C30.559 36.2515 30.0459 36.1779 29.538 36.1117C29.5214 36.1095 29.5045 36.1112 29.4883 36.1166C29.4721 36.122 29.4569 36.131 29.4437 36.1432C29.4304 36.1553 29.4193 36.1703 29.411 36.1874C29.4027 36.2044 29.3973 36.2231 29.3952 36.2425C29.3931 36.2618 29.3942 36.2814 29.3987 36.3001C29.4031 36.3188 29.4106 36.3362 29.4209 36.3514C29.4312 36.3667 29.444 36.3793 29.4585 36.3887C29.4731 36.3981 29.4892 36.4041 29.5058 36.4063C30.0127 36.4724 30.5228 36.5453 31.0255 36.6242L31.0361 36.6253ZM20.3201 36.076L20.3349 36.0767C20.8246 36.0342 21.3393 36.0036 21.8646 35.9848C21.8984 35.9836 21.9307 35.9669 21.9543 35.9383C21.9779 35.9097 21.9909 35.8715 21.9903 35.8322C21.9898 35.7929 21.9759 35.7557 21.9515 35.7288C21.9272 35.7018 21.8945 35.6873 21.8606 35.6885C21.3318 35.7072 20.813 35.7387 20.3197 35.781C20.3029 35.7813 20.2863 35.7855 20.2709 35.7932C20.2554 35.8009 20.2413 35.8121 20.2295 35.8261C20.2177 35.84 20.2083 35.8565 20.2019 35.8746C20.1955 35.8927 20.1922 35.912 20.1922 35.9315C20.1923 35.9509 20.1956 35.9701 20.202 35.988C20.2085 36.0058 20.2179 36.022 20.2297 36.0355C20.2416 36.049 20.2557 36.0597 20.2712 36.0668C20.2867 36.074 20.3033 36.0775 20.3201 36.0772L20.3201 36.076ZM27.9886 36.2311C28.0053 36.2324 28.0221 36.2298 28.038 36.2236C28.0539 36.2173 28.0687 36.2075 28.0814 36.1947C28.1072 36.1689 28.1232 36.1324 28.1259 36.0933C28.1286 36.0541 28.1178 36.0156 28.0959 35.9861C28.074 35.9566 28.0428 35.9385 28.0091 35.936C27.4935 35.8824 26.9779 35.8366 26.4761 35.802C26.4595 35.8008 26.4427 35.8034 26.4268 35.8097C26.4108 35.8159 26.3961 35.8258 26.3834 35.8386C26.3706 35.8514 26.3602 35.867 26.3526 35.8844C26.345 35.9018 26.3404 35.9208 26.3391 35.9402C26.3378 35.9595 26.3398 35.979 26.3449 35.9974C26.3501 36.0157 26.3584 36.0327 26.3692 36.0473C26.3801 36.0619 26.3934 36.0738 26.4083 36.0823C26.4232 36.0909 26.4395 36.0959 26.4561 36.0972C26.9558 36.1346 27.4692 36.1803 27.9825 36.2308L27.9886 36.2311ZM23.3912 35.965L23.3958 35.9653C23.892 35.9687 24.4071 35.982 24.9242 36.0042C24.958 36.0058 24.9911 35.9919 25.0163 35.9653C25.0415 35.9388 25.0568 35.9019 25.0587 35.8627C25.0606 35.8235 25.049 35.7853 25.0265 35.7564C25.004 35.7275 24.9724 35.7104 24.9386 35.7088C24.4164 35.6863 23.8987 35.6735 23.4 35.6699C23.3662 35.669 23.3333 35.6837 23.3085 35.7107C23.2837 35.7378 23.2691 35.775 23.2678 35.8142C23.2665 35.8534 23.2786 35.8914 23.3016 35.9198C23.3245 35.9482 23.3564 35.9646 23.3902 35.9656L23.3912 35.965ZM35.1361 43.373C35.1538 43.374 35.1715 43.3707 35.1882 43.3632C35.2048 43.3557 35.2199 43.3444 35.2326 43.3298C35.4147 43.1201 35.5948 42.9003 35.7684 42.676C35.7803 42.6615 35.7896 42.6445 35.7957 42.626C35.8019 42.6074 35.8047 42.5877 35.8042 42.5679C35.8037 42.5481 35.7997 42.5287 35.7926 42.5109C35.7854 42.493 35.7752 42.4771 35.7626 42.464C35.75 42.4509 35.7352 42.4409 35.7191 42.4346C35.703 42.4283 35.686 42.4258 35.6689 42.4273C35.6519 42.4288 35.6353 42.4343 35.62 42.4434C35.6047 42.4525 35.5911 42.465 35.58 42.4802C35.4096 42.7005 35.2328 42.9164 35.0545 43.1215C35.0368 43.1418 35.0244 43.1677 35.019 43.1958C35.0136 43.2239 35.0154 43.2532 35.0241 43.2799C35.0328 43.3067 35.0481 43.3298 35.0681 43.3464C35.088 43.3631 35.1119 43.3725 35.1366 43.3737L35.1361 43.373Z" fill="#FACC15"/>
</svg>
